<?xml version="1.0" encoding="UTF-8"?>
<svg width="320px" height="141px" viewBox="0 0 320 141" version="1.1" xmlns="http://www.w3.org/2000/svg" xmlns:xlink="http://www.w3.org/1999/xlink">
    <!-- Generator: Sketch 64 (93537) - https://sketch.com -->
    <title>编组</title>
    <desc>Created with Sketch.</desc>
    <defs>
        <polygon id="path-1" points="0 0.202251852 53.2369778 0.202251852 53.2369778 51.4798815 0 51.4798815"></polygon>
    </defs>
    <g id="Page-1" stroke="none" stroke-width="1" fill="none" fill-rule="evenodd">
        <g id="ES8-2020-Desktop" transform="translate(-960.000000, -240.000000)">
            <g id="编组" transform="translate(960.000000, 240.000000)">
                <path d="M198.925274,45.0866963 C194.831644,43.3649185 189.680533,42.4917333 183.616237,42.4917333 C177.424237,42.4917333 172.637274,43.1545481 168.978607,44.5166222 C160.379793,47.7326222 156.0192,56.1509926 156.0192,69.5400296 C156.0192,83.3349926 159.924978,91.0084741 168.679052,94.4155852 C172.354607,95.8579556 177.564681,96.5880296 184.163793,96.5880296 C187.994607,96.5880296 191.308385,96.3584 194.288533,95.8843259 C197.770015,95.3426963 199.811793,94.9346963 201.0912,94.5302519 C202.913126,93.9826963 204.608237,93.4108444 206.273422,92.7797333 L207.881719,92.1684741 L206.301867,88.0656593 L204.697422,88.6967704 C198.774459,91.025363 191.911644,92.2055111 184.300978,92.2055111 C178.123496,92.2055111 173.302756,91.4911407 169.953719,90.0745481 C163.726163,87.521363 160.774459,81.6644741 160.492978,71.1832889 L207.796681,71.1832889 L208.039052,69.7581037 C208.64557,66.1829926 208.95283,63.2535111 208.95283,61.0478815 C208.95283,52.611437 206.047052,47.985363 198.925274,45.0866963 L198.925274,45.0866963 Z M160.498311,66.8016593 C160.829274,56.9269926 164.091496,50.9699556 170.444385,48.6161778 C173.594607,47.4603259 178.095644,46.8736593 183.822163,46.8736593 C189.481719,46.8736593 193.84557,47.5868444 197.188681,49.065363 C202.708681,51.4117333 204.570311,54.4526222 204.570311,61.1169185 C204.570311,63.1062519 204.434607,64.979437 204.157274,66.8016593 L160.498311,66.8016593 Z" id="Fill-1" fill="#FFFFFF"></path>
                <path d="M255.216059,69.2857778 L225.781689,64.8362963 C223.902578,64.5391111 221.405985,63.3488889 221.405985,56.4602963 C221.405985,52.2205926 223.196207,49.6235556 227.037096,48.2845926 C229.758874,47.3343704 233.964504,46.8742222 239.89517,46.8742222 C245.398281,46.8742222 251.880948,47.8893333 259.162726,49.8943704 L260.765689,50.3343704 L262.043615,46.1764444 L260.349985,45.7035556 C252.717096,43.5717037 245.857837,42.4917037 239.963911,42.4917037 C233.40243,42.4917037 228.641244,43.0632593 225.426133,44.230963 C219.928652,46.1672593 217.023467,50.3482963 217.023467,56.3231111 C217.023467,65.9162963 221.500504,68.6099259 225.259319,69.1785185 L254.738726,73.6247407 C257.611319,74.1171852 259.275319,75.4671111 259.275319,80.9071111 C259.275319,85.3574815 258.244504,87.324 257.37843,88.1894815 L257.325393,88.2448889 C256.149393,89.5314074 255.331911,89.956 253.632948,90.5014815 C249.976059,91.633037 245.422874,92.2054815 240.1008,92.2054815 C237.38643,92.2054815 234.631763,92.0303704 231.680356,91.670963 C228.999467,91.3435556 226.973393,91.0111111 225.68243,90.6893333 L218.362726,88.7317037 L216.58317,92.8792593 L224.569837,94.9666667 C226.056948,95.3222222 228.179022,95.6685926 231.059911,96.028 C234.15117,96.4054815 237.042133,96.5882963 239.89517,96.5882963 C245.803615,96.5882963 250.855467,95.9657778 254.906726,94.7364444 C258.897837,93.5340741 263.656356,90.2048889 263.656356,81.1817778 C263.656356,73.8463704 261.053689,70.1776296 255.216059,69.2857778" id="Fill-3" fill="#FFFFFF"></path>
                <path d="M315.276415,68.4411556 C317.482637,66.4381926 318.560267,62.7623407 318.560267,57.2820444 C318.560267,51.7190815 317.549304,46.2687111 310.237304,44.0758222 C306.82723,43.0097481 302.134489,42.4915259 295.8936,42.4915259 C289.653007,42.4915259 284.960859,43.0097481 281.544267,44.0776 C275.637896,45.9421926 273.226933,49.8082667 273.226933,57.4198222 C273.226933,62.9416 274.312859,66.5872296 276.534193,68.4894519 C273.537452,70.6811556 271.7896,75.1330074 271.7896,80.7694519 C271.7896,88.1294519 274.757896,92.890637 280.629896,94.9258963 C283.93923,96.0287111 289.074341,96.5878222 295.8936,96.5878222 C302.712563,96.5878222 307.848267,96.0287111 311.178044,94.9199704 C317.030193,92.890637 319.998489,88.1294519 319.998489,80.7694519 C319.998489,75.2583407 318.123526,70.5273778 315.276415,68.4411556 M311.599081,65.7312296 C310.961452,66.0310815 309.571822,66.3898963 306.577156,66.3898963 L284.664267,66.3898963 C282.111081,66.3898963 280.728563,65.9667852 280.037304,65.6210074 C278.449156,64.8035259 277.610044,62.0624889 277.610044,57.6941926 C277.610044,51.4977481 279.210341,49.5759704 281.654193,48.5780444 C284.229896,47.4473778 289.020119,46.8731556 295.8936,46.8731556 C302.765304,46.8731556 307.557007,47.4473778 310.170341,48.5934519 C312.575674,49.5842667 314.177452,51.4755259 314.177452,57.4873778 C314.177452,60.6767111 313.726489,64.6983407 311.599081,65.7312296 M280.053896,71.4648593 C280.921452,71.0047111 282.356711,70.7724148 284.321156,70.7724148 L307.534489,70.7724148 C309.267822,70.7724148 310.709896,71.0061926 311.69923,71.4453037 C314.242341,72.5813037 315.479081,75.6773037 315.479081,80.9063407 C315.479081,85.1261926 314.291822,87.9771556 311.873156,89.6079704 C310.465748,90.5261926 308.700415,91.1830815 306.478489,91.6168593 C304.115526,92.008563 300.462489,92.2058963 295.620119,92.2058963 C286.787526,92.2058963 282.650933,91.5152296 279.799674,89.5549333 C277.644711,88.1010074 276.309007,86.1688593 276.309007,81.0441185 C276.309007,75.9030815 277.552563,72.6870815 280.053896,71.4648593" id="Fill-5" fill="#FFFFFF"></path>
                <path d="M110.589481,42.5762963 C95.4934815,42.5762963 83.2117037,54.7099259 83.2117037,69.6228148 C83.2117037,84.5380741 95.4934815,96.6722963 110.589481,96.6722963 C125.686667,96.6722963 137.969926,84.5380741 137.969926,69.6228148 C137.969926,54.7099259 125.686667,42.5762963 110.589481,42.5762963 M110.650519,83.7937778 C102.837481,83.7937778 96.4813333,77.4385185 96.4813333,69.6257778 C96.4813333,61.813037 102.837481,55.4568889 110.650519,55.4568889 C118.461778,55.4568889 124.817926,61.813037 124.817926,69.6257778 C124.817926,77.4385185 118.461778,83.7937778 110.650519,83.7937778" id="Fill-7" fill="#FFFFFF"></path>
                <path d="M62.5999111,48.2412148 L62.5999111,95.1792889 L75.4129481,95.1792889 L75.4129481,43.9016593 L66.9394667,43.9016593 C66.1892444,43.9016593 65.6588741,43.9117333 65.0834667,44.0859556 C64.5391704,44.2512889 64.0511704,44.5443259 63.6482074,44.9499556 C63.2440593,45.3529185 62.9495407,45.8403259 62.7853926,46.3843259 C62.6111704,46.959437 62.5999111,47.4904 62.5999111,48.2412148" id="Fill-9" fill="#FFFFFF"></path>
                <g transform="translate(0.000000, 43.699259)">
                    <mask id="mask-2" fill="white">
                        <use xlink:href="#path-1"></use>
                    </mask>
                    <g id="Clip-12"></g>
                    <path d="M-5.92592593e-05,0.202251852 L-5.92592593e-05,51.4798815 L8.5072,51.4798815 C9.25742222,51.4798815 9.78779259,51.4692148 10.3632,51.2949926 C10.9080889,51.1305481 11.3949037,50.8357333 11.7993481,50.4330667 C12.2032,50.0286222 12.4971259,49.5400296 12.6618667,48.9957333 C12.8360889,48.4203259 12.8467556,47.8905481 12.8467556,47.1400296 L12.8467556,19.9738074 C21.3057185,29.6185481 29.7646815,39.2656593 38.2230519,48.9104 C39.014163,49.8132148 39.6725333,50.5112889 40.702163,50.9779556 C41.7314963,51.4440296 42.6903111,51.4798815 43.8926815,51.4798815 L53.2369778,51.4798815 L53.2369778,0.202251852 L44.7303111,0.202251852 C43.9794963,0.202251852 43.4497185,0.21202963 42.8743111,0.386251852 C42.3294222,0.551881481 41.8420148,0.845807407 41.438163,1.25025185 C41.0352,1.65351111 40.7403852,2.14151111 40.5756444,2.68521481 C40.4020148,3.26032593 40.3907556,3.7906963 40.3907556,4.54180741 L40.3907556,31.7068444 C31.9323852,22.0621037 23.4734222,12.4167704 15.0144593,2.77054815 C14.2224593,1.86743704 13.5637926,1.17025185 12.5350519,0.703881481 C11.5060148,0.236622222 10.5466074,0.202251852 9.34482963,0.202251852 L-5.92592593e-05,0.202251852 Z" id="Fill-11" fill="#FFFFFF" mask="url(#mask-2)"></path>
                </g>
                <path d="M15.6300148,127.959674 C17.0237926,129.950785 18.730163,131.799378 20.778163,133.534193 C22.8258667,135.269304 24.9020148,136.634637 26.9784593,137.573007 C26.8077926,137.715526 26.6371259,137.886193 26.4664593,138.085304 C26.2673481,138.312563 26.1251259,138.511674 25.9829037,138.682341 C21.5743111,136.378637 17.7630519,133.022489 14.5775704,128.585452 L14.5775704,140.474341 L13.1837926,140.474341 L13.1837926,128.69923 C11.7618667,130.804119 10.0552,132.738044 8.03594074,134.501304 C6.01638519,136.264859 3.96868148,137.658341 1.94912593,138.710785 C1.8069037,138.540119 1.66468148,138.341007 1.49401481,138.113748 C1.2949037,137.914637 1.12423704,137.715526 0.95357037,137.573007 C3.03001481,136.634637 5.07771852,135.298044 7.09727407,133.562933 C9.11682963,131.827822 10.7947556,129.978933 12.1600889,127.959674 L1.60779259,127.959674 L1.60779259,126.622785 L13.1837926,126.622785 L13.1837926,120.962933 L3.62734815,120.962933 L3.62734815,119.5976 L13.1837926,119.5976 L13.1837926,114.733896 L14.5775704,114.733896 L14.5775704,119.5976 L24.4756444,119.5976 L24.4756444,120.962933 L14.5775704,120.962933 L14.5775704,126.622785 L26.3526815,126.622785 L26.3526815,127.959674 L15.6300148,127.959674 Z" id="Fill-13" fill="#FFFFFF"></path>
                <path d="M54.2856593,126.4808 C54.8261037,125.655911 55.3949926,124.6888 55.9923259,123.579467 C56.5612148,122.47043 57.0447704,121.474578 57.4145481,120.536504 L58.8080296,121.048207 C58.2960296,122.043467 57.7555852,123.067467 57.1582519,124.119911 C56.5612148,125.172356 55.9638815,126.111022 55.423437,126.879022 L54.2856593,126.4808 Z M42.3683259,120.706874 C42.9941037,121.588652 43.5629926,122.555763 44.103437,123.551022 C44.6435852,124.575022 45.0136593,125.485244 45.2409185,126.252948 L43.9612148,126.765244 C43.7621037,125.997244 43.3923259,125.087022 42.8803259,124.034578 C42.3683259,123.010578 41.799437,122.043467 41.2021037,121.161985 L42.3683259,120.706874 Z M51.6121778,128.727615 C53.0059556,130.690281 54.7407704,132.481985 56.7603259,134.160207 C58.7795852,135.838133 60.8275852,137.146578 62.8752889,138.056504 C62.7330667,138.199022 62.5624,138.398133 62.3917333,138.597244 C62.1926222,138.824504 62.0504,139.023911 61.9081778,139.194281 C59.8320296,138.170578 57.7840296,136.748356 55.7363259,134.956356 C53.6598815,133.164652 51.8966222,131.258874 50.4459556,129.182726 L50.4459556,140.474578 L49.0521778,140.474578 L49.0521778,129.182726 C47.6018074,131.258874 45.8666963,133.193096 43.847437,134.928207 C41.8278815,136.691467 39.7798815,138.085244 37.7321778,139.108948 C37.6184,138.909837 37.4761778,138.710726 37.3055111,138.511615 C37.1066963,138.3128 36.9357333,138.113689 36.765363,137.971467 C38.8130667,137.089689 40.8323259,135.809689 42.8518815,134.131467 C44.8426963,132.453541 46.5209185,130.661541 47.9146963,128.727615 L37.2770667,128.727615 L37.2770667,127.390726 L49.0521778,127.390726 L49.0521778,119.68317 L38.6424,119.68317 L38.6424,118.346281 L49.0521778,118.346281 L49.0521778,114.762281 L50.4459556,114.762281 L50.4459556,118.346281 L61.0832889,118.346281 L61.0832889,119.68317 L50.4459556,119.68317 L50.4459556,127.390726 L62.3064,127.390726 L62.3064,128.727615 L51.6121778,128.727615 Z" id="Fill-15" fill="#FFFFFF"></path>
                <path d="M92.9414815,135.383289 C93.7948148,136.065956 94.6481481,136.805215 95.5296296,137.573215 C96.4114074,138.369659 97.0940741,139.08077 97.6060741,139.706548 L96.638963,140.559881 C96.126963,139.905659 95.4442963,139.194252 94.5912593,138.369659 C93.7094815,137.54477 92.8561481,136.805215 91.9743704,136.094104 L92.9414815,135.383289 Z M87.3951111,133.363733 L93.8517037,133.363733 L93.8517037,130.832474 L87.3951111,130.832474 L87.3951111,133.363733 Z M87.3951111,129.751585 L93.8517037,129.751585 L93.8517037,127.305363 L87.3951111,127.305363 L87.3951111,129.751585 Z M87.3951111,126.22477 L93.8517037,126.22477 L93.8517037,123.949215 L87.3951111,123.949215 L87.3951111,126.22477 Z M88.9595556,135.75277 C87.7364444,137.686993 86.1722963,139.308326 84.294963,140.58803 C84.1811852,140.445807 84.038963,140.303585 83.8398519,140.132919 C83.6407407,139.962252 83.4416296,139.820326 83.270963,139.706548 C85.1198519,138.54003 86.598963,137.089659 87.708,135.354548 L88.9595556,135.75277 Z M98.2318519,133.363733 L98.2318519,134.586844 L82.9583704,134.586844 L82.9583704,133.363733 L86.1438519,133.363733 L86.1438519,123.949215 L84.3802963,123.949215 L84.3802963,122.726104 L86.1438519,122.726104 L86.1438519,120.735289 L87.3951111,120.735289 L87.3951111,122.726104 L93.8517037,122.726104 L93.8517037,120.735289 L95.102963,120.735289 L95.102963,122.726104 L97.406963,122.726104 L97.406963,123.949215 L95.102963,123.949215 L95.102963,133.363733 L98.2318519,133.363733 Z M85.4327407,119.256178 C84.6362963,120.820919 83.7260741,122.185956 82.7020741,123.294993 C82.617037,123.181215 82.4463704,123.039289 82.2472593,122.868622 C82.0481481,122.697956 81.849037,122.555733 81.6783704,122.441659 C83.5838519,120.451141 84.9491852,117.862696 85.7740741,114.705659 L87.0256296,114.961363 C86.7693333,116.013807 86.3995556,117.037807 85.9731852,118.033067 L97.9474074,118.033067 L97.9474074,119.256178 L85.4327407,119.256178 Z M78.1231111,119.256178 C77.924,118.687289 77.6111111,118.033067 77.1844444,117.293807 C76.7577778,116.554252 76.3311111,115.871585 75.9044444,115.217363 L77.0422222,114.734104 C77.5257778,115.359881 77.9524444,116.042548 78.3791111,116.753363 C78.8057778,117.492919 79.1183704,118.147141 79.3743704,118.687289 L78.1231111,119.256178 Z M81.9628148,125.257659 L81.9628148,125.342993 L81.9628148,125.542104 L81.9628148,125.797807 C81.9343704,125.883141 81.9343704,125.940326 81.9343704,125.997215 C81.7921481,130.604919 81.6214815,133.875733 81.4223704,135.838104 C81.2232593,137.80077 80.9672593,138.966993 80.6259259,139.364919 C80.2845926,139.820326 79.801037,140.047585 79.1755556,140.076326 C78.5779259,140.10477 77.7817778,140.10477 76.7862222,140.047585 C76.7577778,139.848474 76.7293333,139.621215 76.6724444,139.364919 C76.6155556,139.137659 76.5302222,138.938548 76.4448889,138.767881 C77.5826667,138.824474 78.3503704,138.853215 78.7488889,138.853215 C78.9477037,138.881659 79.0899259,138.853215 79.2037037,138.796326 C79.3177778,138.767881 79.4312593,138.654104 79.5165926,138.511881 C79.7725926,138.227437 79.9717037,137.174993 80.1708148,135.383289 C80.3699259,133.591289 80.5121481,130.633363 80.6543704,126.509215 L76.8715556,126.509215 C76.7293333,129.324919 76.4448889,131.941807 75.9613333,134.359289 C75.4777778,136.77677 74.7382222,138.824474 73.6860741,140.502696 C73.5722963,140.360474 73.4016296,140.190104 73.2025185,140.047585 C72.974963,139.905659 72.7758519,139.763141 72.5767407,139.677807 C73.9136296,137.601659 74.766963,134.842844 75.1936296,131.458252 C75.5915556,128.073363 75.7906667,124.546548 75.8191111,120.820919 L72.7474074,120.820919 L72.7474074,119.540622 L82.361037,119.540622 L82.361037,120.820919 L77.0706667,120.820919 C77.0422222,122.299733 77.0137778,123.778548 76.9568889,125.229215 L81.2801481,125.257659 L81.9628148,125.257659 Z" id="Fill-17" fill="#FFFFFF"></path>
                <path d="M131.767881,138.483407 C132.08077,138.483407 132.33677,138.36963 132.507437,138.11363 C132.649659,137.886074 132.763437,137.402815 132.84877,136.691407 C132.905659,135.980593 132.962548,134.899407 132.990993,133.505926 C133.417659,133.79037 133.815881,133.989481 134.185659,134.074815 C134.12877,136.265037 133.958104,137.743852 133.702104,138.483407 C133.417659,139.222963 132.763437,139.592444 131.739437,139.592444 L129.407289,139.592444 C128.639289,139.592444 128.098844,139.450519 127.757511,139.194222 C127.387733,138.938519 127.217067,138.426519 127.217067,137.686963 L127.217067,130.548 L128.497067,130.548 L128.497067,137.544741 C128.497067,137.914519 128.5824,138.170519 128.724622,138.284296 C128.866844,138.426519 129.122844,138.483407 129.492622,138.483407 L131.767881,138.483407 Z M122.438993,130.718667 L121.158993,130.718667 L121.158993,116.156296 L132.308326,116.156296 L132.308326,130.718667 L130.999881,130.718667 L130.999881,117.407556 L122.438993,117.407556 L122.438993,130.718667 Z M127.273956,126.310074 C127.273956,127.788889 127.103289,129.35363 126.790696,131.003111 C126.449067,132.681037 125.766696,134.273926 124.771141,135.838074 C123.775585,137.402815 122.26803,138.824444 120.305659,140.104741 C120.220326,139.962222 120.078104,139.791852 119.907437,139.592444 C119.708326,139.422074 119.566104,139.279852 119.423881,139.166074 C121.329659,137.942963 122.751585,136.606074 123.690252,135.155704 C124.628919,133.705037 125.254696,132.197481 125.567585,130.661778 C125.85203,129.125778 125.994252,127.675111 125.994252,126.28163 L125.994252,120.223259 L127.273956,120.223259 L127.273956,126.310074 Z M114.105363,121.076593 C114.53203,121.730815 114.901511,122.44163 115.242844,123.181185 C115.584178,123.921037 115.840178,124.575259 116.010844,125.172296 L114.929956,125.655852 C114.759289,125.058519 114.503289,124.376148 114.1904,123.608148 C113.849067,122.840148 113.479585,122.129037 113.081363,121.474815 L114.105363,121.076593 Z M115.242844,134.700296 C115.043733,134.04637 114.759289,133.306815 114.332622,132.481926 C113.906252,131.657333 113.479585,130.889333 112.99603,130.178222 L113.991289,129.751556 C114.503289,130.462667 114.9584,131.23037 115.385067,132.027111 C115.811733,132.823259 116.124622,133.53437 116.352178,134.160148 L115.242844,134.700296 Z M112.057363,127.248741 L117.2624,127.248741 L117.2624,119.484 L112.057363,119.484 L112.057363,127.248741 Z M118.513956,138.312741 C118.513956,139.166074 118.257659,139.64963 117.745956,139.791852 C117.290844,139.962222 116.153067,140.047556 114.361067,140.047556 C114.332622,139.876889 114.247585,139.677778 114.162252,139.422074 C114.076622,139.194222 113.963141,138.995407 113.877807,138.824444 C114.588919,138.853185 115.2144,138.853185 115.7264,138.853185 C116.2384,138.853185 116.579733,138.853185 116.778844,138.824444 C116.949511,138.796296 117.063289,138.767852 117.148622,138.710963 C117.233956,138.654074 117.2624,138.54 117.2624,138.341185 L117.2624,128.443111 L112.057363,128.443111 L112.057363,128.756 C112.057363,129.979111 112.000474,131.287556 111.915141,132.681037 C111.801363,134.103259 111.573807,135.497037 111.232474,136.833926 C110.891437,138.198963 110.379141,139.422074 109.668326,140.502667 C109.554548,140.389185 109.383881,140.246667 109.18477,140.104741 C108.985659,139.962222 108.786548,139.876889 108.615881,139.791852 C109.270104,138.739407 109.781807,137.573185 110.094993,136.293185 C110.407881,135.041926 110.606993,133.761926 110.69203,132.453481 C110.777363,131.145037 110.805807,129.922222 110.805807,128.756 L110.805807,128.443111 L108.701215,128.443111 L108.701215,127.248741 L110.805807,127.248741 L110.805807,118.289333 L113.024474,118.289333 C113.223585,117.720444 113.4224,117.094667 113.621807,116.440444 C113.820919,115.786222 113.963141,115.160444 114.076622,114.620296 L115.498844,114.990074 C115.100622,116.127852 114.7024,117.236889 114.275733,118.289333 L118.513956,118.289333 L118.513956,138.312741 Z" id="Fill-19" fill="#FFFFFF"></path>
                <path d="M16.0961481,14.6243259 L10.8161481,1.66402963 L5.53585185,14.6243259 L16.0961481,14.6243259 Z M4.96014815,16.1280296 L2.43185185,22.4643259 L0.639851852,22.4643259 L9.85614815,2.96296296e-05 L11.8081481,2.96296296e-05 L20.9604444,22.4643259 L19.2004444,22.4643259 L16.6721481,16.1280296 L4.96014815,16.1280296 Z" id="Fill-21" fill="#FFFFFF"></path>
                <path d="M26.815763,22.5603852 C26.335763,22.4003852 25.919763,22.1443852 25.567763,21.7923852 C25.183763,21.4403852 24.895763,20.9603852 24.671763,20.3523852 C24.447763,19.7763852 24.319763,19.0400889 24.319763,18.1443852 L24.319763,0.0637925926 L25.951763,0.0637925926 L25.951763,18.3360889 C25.951763,19.2643852 26.143763,20.0000889 26.559763,20.5440889 C26.943763,21.0880889 27.519763,21.3763852 28.255763,21.3763852 C28.639763,21.3763852 28.959763,21.3443852 29.247763,21.2803852 C29.503763,21.2163852 29.727763,21.1203852 29.919763,21.0240889 L30.367763,22.2720889 C30.047763,22.4320889 29.695763,22.5603852 29.343763,22.6563852 C28.991763,22.7520889 28.639763,22.7843852 28.287763,22.7843852 C27.775763,22.7843852 27.295763,22.7203852 26.815763,22.5603852" id="Fill-23" fill="#FFFFFF"></path>
                <path d="M36.0633185,22.5603852 C35.5833185,22.4003852 35.1673185,22.1443852 34.8153185,21.7923852 C34.4313185,21.4403852 34.1433185,20.9603852 33.9193185,20.3523852 C33.6953185,19.7763852 33.5673185,19.0400889 33.5673185,18.1443852 L33.5673185,0.0637925926 L35.1990222,0.0637925926 L35.1990222,18.3360889 C35.1990222,19.2643852 35.3913185,20.0000889 35.8073185,20.5440889 C36.1913185,21.0880889 36.7673185,21.3763852 37.5033185,21.3763852 C37.8873185,21.3763852 38.2073185,21.3443852 38.4953185,21.2803852 C38.7513185,21.2163852 38.9753185,21.1203852 39.1673185,21.0240889 L39.6153185,22.2720889 C39.2953185,22.4320889 38.9433185,22.5603852 38.5913185,22.6563852 C38.2393185,22.7520889 37.8873185,22.7843852 37.5353185,22.7843852 C37.0233185,22.7843852 36.5433185,22.7203852 36.0633185,22.5603852" id="Fill-25" fill="#FFFFFF"></path>
                <polygon id="Fill-27" fill="#FFFFFF" points="53.4384593 22.4642963 51.7744593 22.4642963 51.7744593 0.0637037037 53.5664593 0.0637037037 68.3187556 20.0322963 68.3187556 0.0637037037 69.9507556 0.0637037037 69.9507556 22.4642963 68.1267556 22.4642963 53.4384593 2.592"></polygon>
                <path d="M80.1583704,7.39197037 C79.4863704,7.68026667 78.8783704,8.06426667 78.3343704,8.57597037 C77.7903704,9.08826667 77.3103704,9.69597037 76.9583704,10.4322667 C76.6063704,11.1679704 76.3503704,11.9679704 76.1903704,12.8642667 L88.1266667,12.8642667 C88.0943704,12.0642667 87.9666667,11.3279704 87.7103704,10.5922667 C87.4226667,9.88826667 87.0383704,9.27997037 86.5586667,8.73597037 C86.0783704,8.19197037 85.4703704,7.77597037 84.7663704,7.45626667 C84.0623704,7.13626667 83.2623704,6.97626667 82.3663704,6.97626667 C81.5663704,6.97626667 80.8303704,7.10397037 80.1583704,7.39197037 M79.2943704,22.1442667 C78.2703704,21.6962667 77.4063704,21.0882667 76.6703704,20.2882667 C75.9343704,19.4882667 75.3903704,18.5922667 75.0063704,17.5362667 C74.6223704,16.4802667 74.4300741,15.3602667 74.4300741,14.1759704 C74.4300741,12.9919704 74.6223704,11.8402667 74.9743704,10.7839704 C75.3263704,9.72826667 75.8703704,8.79997037 76.5743704,8.00026667 C77.2463704,7.20026667 78.0783704,6.59197037 79.0703704,6.11226667 C80.0623704,5.66397037 81.1503704,5.43997037 82.3663704,5.43997037 C83.5823704,5.43997037 84.6703704,5.66397037 85.6303704,6.07997037 C86.5586667,6.49626667 87.3583704,7.10397037 87.9983704,7.90426667 C88.6386667,8.70426667 89.1183704,9.63226667 89.4383704,10.7522667 C89.7583704,11.8719704 89.8866667,13.0882667 89.8546667,14.4322667 L76.0943704,14.4322667 C76.1263704,15.4882667 76.3503704,16.4162667 76.7343704,17.2482667 C77.1183704,18.1122667 77.6303704,18.8162667 78.2383704,19.3922667 C78.8463704,20.0002667 79.5503704,20.4482667 80.3503704,20.768563 C81.1183704,21.0882667 81.9183704,21.2482667 82.7823704,21.2482667 C84.0303704,21.2482667 85.0863704,21.0242667 85.9503704,20.5762667 C86.8143704,20.1602667 87.5503704,19.6162667 88.1583704,19.0082667 L89.2463704,20.0322667 C88.6386667,20.768563 87.7746667,21.4082667 86.6863704,21.9842667 C85.5983704,22.5602667 84.2863704,22.8482667 82.7183704,22.8482667 C81.4383704,22.8482667 80.2863704,22.6242667 79.2943704,22.1442667" id="Fill-29" fill="#FFFFFF"></path>
                <polygon id="Fill-31" fill="#FFFFFF" points="100.093689 22.4642963 97.9816889 22.4642963 92.1576889 5.92 93.9176889 5.92 99.0696889 20.8002963 103.869689 5.92 105.213689 5.92 109.981985 20.8002963 115.069985 5.92 116.829985 5.92 111.005985 22.4642963 108.893985 22.4642963 104.509689 8.896"></polygon>
            </g>
        </g>
    </g>
</svg>