<?xml version="1.0" encoding="UTF-8"?>
<svg width="198px" height="30px" viewBox="0 0 198 30" version="1.1" xmlns="http://www.w3.org/2000/svg" xmlns:xlink="http://www.w3.org/1999/xlink">
    <!-- Generator: Sketch 60.1 (88133) - https://sketch.com -->
    <title>NIO Power logo</title>
    <desc>Created with Sketch.</desc>
    <defs>
        <polygon id="path-1" points="0 0.0693948649 28.5920562 0.0693948649 28.5920562 27.4283489 0 27.4283489"></polygon>
        <polygon id="path-3" points="0.132368803 0.158940286 22.0744661 0.158940286 22.0744661 22.1837838 0.132368803 22.1837838"></polygon>
        <polygon id="path-5" points="0.160938092 0.158891351 19.7944246 0.158891351 19.7944246 22.1837838 0.160938092 22.1837838"></polygon>
        <polygon id="path-7" points="0.148848185 0.0758290909 10.4987676 0.0758290909 10.4987676 21.4400291 0.148848185 21.4400291"></polygon>
    </defs>
    <g id="Page-1" stroke="none" stroke-width="1" fill="none" fill-rule="evenodd">
        <g id="ES8-2020-Desktop" transform="translate(-40.000000, -4945.000000)">
            <g id="NIO-Power-logo" transform="translate(40.000000, 4945.000000)">
                <path d="M59.8704585,22.2404755 C55.6226213,22.2404755 52.1666663,18.8111265 52.1666663,14.5954204 C52.1666663,10.3798796 55.6226213,6.95036537 59.8704585,6.95036537 C64.1177963,6.95036537 67.5737513,10.3798796 67.5737513,14.5954204 C67.5737513,18.8111265 64.1177963,22.2404755 59.8704585,22.2404755 M59.837505,0 C51.6294247,0 44.9513514,6.54686397 44.9513514,14.5940991 C44.9513514,22.6416646 51.6294247,29.1891892 59.837505,29.1891892 C68.0460845,29.1891892 74.7243243,22.6416646 74.7243243,14.5940991 C74.7243243,6.54686397 68.0460845,0 59.837505,0" id="Fill-1" fill="#000000"></path>
                <path d="M35.2172609,0.682386185 C34.9196927,0.770833521 34.6529189,0.92807323 34.4323369,1.14444162 C34.2115874,1.36048243 34.0504186,1.62107449 33.9605456,1.91229553 C33.8654845,2.22005951 33.8594595,2.50423752 33.8594595,2.90569015 L33.8594595,28.0216216 L40.8648649,28.0216216 L40.8648649,0.583783784 L36.2318046,0.583783784 C35.8216023,0.583783784 35.5317326,0.58935269 35.2172609,0.682386185" id="Fill-3" fill="#000000"></path>
                <g id="Group-7" transform="translate(0.000000, 0.583784)">
                    <mask id="mask-2" fill="white">
                        <use xlink:href="#path-1"></use>
                    </mask>
                    <g id="Clip-6"></g>
                    <path d="M23.0264965,0.167713784 C22.7341953,0.255906834 22.4721434,0.412694479 22.2554657,0.628440811 C22.0386236,0.843860502 21.8803075,1.10370336 21.7920253,1.39408714 C21.6986467,1.70096629 21.6927284,1.9843273 21.6927284,2.38462575 L21.6927284,16.8785003 L8.06406106,1.43998019 C7.63843236,0.957694865 7.28481036,0.585487529 6.73210132,0.336750463 C6.17939228,0.0876867568 5.66433059,0.0693948649 5.01906498,0.0693948649 L-3.28797763e-05,0.0693948649 L-3.28797763e-05,27.4283489 L4.56894084,27.4283489 C4.9718825,27.4283489 5.25695016,27.4223061 5.56585566,27.3297034 C5.85815687,27.2418369 6.11987989,27.0847227 6.33688641,26.869303 C6.55372854,26.6538833 6.71171586,26.3937138 6.80032686,26.1031667 C6.89370542,25.7962875 6.89962378,25.5134165 6.89962378,25.113118 L6.89962378,10.6189169 C11.4426225,15.7649814 15.9854568,20.9112092 20.5282911,26.0577636 C20.953591,26.5397223 21.307213,26.9119296 21.859922,27.16083 C22.4126311,27.4095671 22.9276927,27.4283489 23.5732872,27.4283489 L28.5920562,27.4283489 L28.5920562,0.0693948649 L24.0230825,0.0693948649 C23.6201408,0.0693948649 23.335402,0.0749477606 23.0264965,0.167713784" id="Fill-5" fill="#000000" mask="url(#mask-2)"></path>
                </g>
                <path d="M89.005532,15.4877621 L83.2418464,15.4877621 L83.2418464,2.00248375 L88.8847177,2.00248375 C94.7291086,2.00248375 96.9860947,4.82206252 96.9860947,8.78587068 C96.9860947,12.0144086 95.0514424,15.4877621 89.005532,15.4877621 M89.8520439,0 L81.1459459,0 L81.1459459,28.6054054 L83.2418464,28.6054054 L83.2418464,17.5310759 L90.0535634,17.5310759 C94.8901943,17.5310759 99.2432432,14.0983878 99.2432432,8.70421057 C99.2432432,3.80048794 95.5752957,0 89.8520439,0" id="Fill-8" fill="#000000"></path>
                <g id="Group-12" transform="translate(102.745946, 7.005405)">
                    <mask id="mask-4" fill="white">
                        <use xlink:href="#path-3"></use>
                    </mask>
                    <g id="Clip-11"></g>
                    <path d="M11.1036676,20.2000315 C6.75648,20.2000315 2.2851966,16.6775403 2.2851966,11.1713947 C2.2851966,5.66508591 6.75648,2.14275777 11.1036676,2.14275777 C15.4506885,2.14275777 19.8802731,5.66508591 19.8802731,11.1713947 C19.8802731,16.6775403 15.4506885,20.2000315 11.1036676,20.2000315 M11.1036676,0.158940286 C5.55588695,0.158940286 0.132368803,4.20764394 0.132368803,11.1713947 C0.132368803,18.1351454 5.55588695,22.183849 11.1036676,22.183849 C16.6099163,22.183849 22.0744661,18.1351454 22.0744661,11.1713947 C22.0744661,4.20764394 16.6099163,0.158940286 11.1036676,0.158940286" id="Fill-10" fill="#000000" mask="url(#mask-4)"></path>
                </g>
                <polygon id="Fill-13" fill="#000000" points="150.039122 26.4914189 143.946955 7.58918919 142.229657 7.58918919 136.096473 26.4914189 129.513578 7.58918919 127.264865 7.58918919 134.706326 28.6054054 137.404914 28.6054054 143.047536 11.3697334 148.64914 28.6054054 151.347563 28.6054054 158.789189 7.58918919 156.540311 7.58918919"></polygon>
                <g id="Group-17" transform="translate(162.291892, 7.005405)">
                    <mask id="mask-6" fill="white">
                        <use xlink:href="#path-5"></use>
                    </mask>
                    <g id="Clip-16"></g>
                    <path d="M2.40039058,9.55192951 C3.13347828,5.0577559 6.26841649,2.10225606 10.258487,2.10225606 C14.8189191,2.10225606 17.4655149,5.54367863 17.5875595,9.55192951 L2.40039058,9.55192951 Z M10.258487,0.158891351 C4.028964,0.158891351 0.160938092,5.13866146 0.160938092,11.2117985 C0.160938092,17.20403 4.23269972,22.1838001 10.7066399,22.1838001 C14.6560289,22.1838001 17.4655149,20.4428624 19.0125612,18.6210192 L17.628241,17.3253883 C16.0810307,18.9043518 13.9231053,20.1595298 10.788003,20.1595298 C6.47198817,20.1595298 2.52243517,16.7990128 2.278346,11.535747 L19.7860024,11.535747 C19.9897381,4.69335463 16.488174,0.158891351 10.258487,0.158891351 L10.258487,0.158891351 Z" id="Fill-15" fill="#000000" mask="url(#mask-6)"></path>
                </g>
                <g id="Group-20" transform="translate(186.810811, 7.005405)">
                    <mask id="mask-8" fill="white">
                        <use xlink:href="#path-7"></use>
                    </mask>
                    <g id="Clip-19"></g>
                    <path d="M9.38113853,0.0758290909 C6.52443429,0.0758290909 3.70909529,1.82232 2.13588139,5.03106545 L2.13588139,0.441229091 L0.148848185,0.441229091 L0.148848185,21.4400291 L2.21894548,21.4400291 L2.21894548,8.11790182 C3.50226903,5.03106545 5.82055784,2.10655636 9.62949683,2.06597455 C9.91938718,2.06597455 10.2091107,2.06597455 10.4988343,2.10655636 L10.4988343,0.116410909 C10.1263802,0.0758290909 9.71222734,0.0758290909 9.38113853,0.0758290909" id="Fill-18" fill="#000000" mask="url(#mask-8)"></path>
                </g>
            </g>
        </g>
    </g>
</svg>