<?xml version="1.0" encoding="UTF-8"?>
<svg width="208px" height="30px" viewBox="0 0 208 30" version="1.1" xmlns="http://www.w3.org/2000/svg" xmlns:xlink="http://www.w3.org/1999/xlink">
    <!-- Generator: Sketch 60.1 (88133) - https://sketch.com -->
    <title>Group 21备份</title>
    <desc>Created with Sketch.</desc>
    <g id="Page-1" stroke="none" stroke-width="1" fill="none" fill-rule="evenodd">
        <g id="ES8-2020-Desktop" transform="translate(-520.000000, -4945.000000)" fill="#FFFFFF">
            <g id="Group-21备份" transform="translate(520.000000, 4945.000000)">
                <path d="M-8.328e-05,1.54191667 L-8.328e-05,28.93775 L4.54200792,28.93775 C4.94258472,28.93775 5.22573672,28.93275 5.53303992,28.84025 C5.82368712,28.7519167 6.08435352,28.5944167 6.30004872,28.3785833 C6.51574392,28.16275 6.67231032,27.9019167 6.76058712,27.6119167 C6.85302792,27.3044167 6.85969032,27.0210833 6.85969032,26.62025 L6.85969032,12.10525 C11.3759647,17.2585833 15.8922391,22.4119167 20.4085135,27.5660833 C20.8315759,28.0485833 21.1830175,28.4210833 21.7326655,28.6710833 C22.2823135,28.92025 22.7944855,28.93775 23.4357415,28.93775 L28.4250463,28.93775 L28.4250463,1.54191667 L23.8829551,1.54191667 C23.4823783,1.54191667 23.1992263,1.54691667 22.8919231,1.64025 C22.6021087,1.72858333 22.3414423,1.88608333 22.1257471,2.10108333 C21.9100519,2.31691667 21.7534855,2.57775 21.6652087,2.86858333 C21.5719351,3.17608333 21.5661055,3.45858333 21.5661055,3.86025 L21.5661055,18.3735833 C17.0506639,13.22025 12.5335567,8.06691667 8.01728232,2.91441667 C7.59421992,2.43108333 7.24277832,2.05858333 6.69313032,1.80941667 C6.14348232,1.56025 5.63214312,1.54191667 4.99005432,1.54191667 L-8.328e-05,1.54191667 Z" id="Fill-1"></path>
                <path d="M33.4245946,3.86041667 L33.4245946,28.93875 L40.2660466,28.93875 L40.2660466,1.54208333 L35.7414442,1.54208333 C35.3408674,1.54208333 35.0577154,1.54708333 34.751245,1.64041667 C34.4605978,1.72791667 34.1990986,1.88541667 33.9834034,2.10125 C33.768541,2.31708333 33.6111418,2.57708333 33.5236978,2.86875 C33.4304242,3.17541667 33.4245946,3.45958333 33.4245946,3.86041667" id="Fill-4"></path>
                <path d="M59.0807474,22.85575 C54.9092522,22.85575 51.5155922,19.4599167 51.5155922,15.28575 C51.5155922,11.1115833 54.9092522,7.71575 59.0807474,7.71575 C63.2514098,7.71575 66.6450698,11.1115833 66.6450698,15.28575 C66.6450698,19.4599167 63.2514098,22.85575 59.0807474,22.85575 M59.0482682,0.83325 C50.987597,0.83325 44.4301298,7.31658333 44.4301298,15.2849167 C44.4301298,23.25325 50.987597,29.7365833 59.0482682,29.7365833 C67.1089394,29.7365833 73.6680722,23.25325 73.6680722,15.2849167 C73.6680722,7.31658333 67.1089394,0.83325 59.0482682,0.83325" id="Fill-6"></path>
                <path d="M81.6652008,24.5435833 C83.4373992,26.16275 86.7894192,27.51275 89.4876912,27.51275 C93.64836,27.51275 96.1525896,25.0060833 96.1525896,21.84525 C96.1525896,18.56775 92.9163288,17.3335833 88.793136,15.9460833 C85.3261896,14.7885833 81.5494416,13.20775 81.5494416,8.46608333 C81.5494416,4.49441667 84.9406032,1.56441667 89.2944816,1.56441667 C92.6465016,1.56441667 95.4205584,2.91441667 97.0778304,4.68775 L95.6903856,6.26858333 C93.956496,4.64941667 91.7220936,3.49275 89.409408,3.49275 C85.9807704,3.49275 83.6689176,5.88275 83.6689176,8.54275 C83.6689176,11.9360833 86.5587336,12.8994167 90.5270256,14.3260833 C94.4187,15.75275 98.2337568,17.48775 98.2337568,21.76775 C98.2337568,26.31775 94.6502184,29.4785833 89.4485496,29.4785833 C86.7128016,29.4785833 83.2450224,28.55275 80.5092744,26.2785833 L81.6652008,24.5435833 Z" id="Fill-9"></path>
                <path d="M118.961483,17.4493333 C118.846556,13.6318333 116.341494,10.3551667 112.026757,10.3551667 C108.250842,10.3551667 105.283575,13.1693333 104.589853,17.4493333 L118.961483,17.4493333 Z M120.310619,26.0851667 C118.846556,27.8201667 116.187426,29.4785 112.449819,29.4785 C106.323743,29.4785 102.470377,24.7368333 102.470377,19.0301667 C102.470377,13.2468333 106.131366,8.50516667 112.026757,8.50516667 C117.921315,8.50516667 121.235027,12.8226667 121.04265,19.3385 L104.474094,19.3385 C104.705612,24.3501667 108.442386,27.5518333 112.52727,27.5518333 C115.493703,27.5518333 117.536562,26.356 119.000624,24.8518333 L120.310619,26.0851667 Z" id="Fill-11"></path>
                <path d="M125.896291,29.01625 L125.896291,9.08291667 L127.746773,9.08291667 L127.746773,13.4395833 C129.210003,10.39375 131.829991,8.73625 134.489122,8.73625 C134.797258,8.73625 135.182011,8.73625 135.528456,8.77375 L135.528456,10.66375 C135.258629,10.6254167 134.990467,10.6254167 134.72064,10.6254167 C131.175411,10.66375 129.016793,13.4395833 127.822558,16.3695833 L127.822558,29.01625 L125.896291,29.01625 Z" id="Fill-13"></path>
                <polygon id="Fill-15" points="146.625183 29.1314167 138.37963 9.08308333 140.536582 9.08308333 147.625376 27.0114167 154.638385 9.08308333 156.797002 9.08308333 148.589758 29.1314167"></polygon>
                <path d="M160.648786,29.0163333 L162.613361,29.0163333 L162.613361,9.083 L160.648786,9.083 L160.648786,29.0163333 Z M159.916754,3.76216667 C159.916754,2.83716667 160.687927,2.02716667 161.650644,2.02716667 C162.575052,2.02716667 163.345392,2.83716667 163.345392,3.76216667 C163.345392,4.72633333 162.575052,5.5355 161.650644,5.5355 C160.687927,5.5355 159.916754,4.72633333 159.916754,3.76216667 L159.916754,3.76216667 Z" id="Fill-17"></path>
                <path d="M186.116476,25.8164167 C184.690722,27.6280833 181.877524,29.4789167 178.102441,29.4789167 C172.092124,29.4789167 167.622486,24.7364167 167.622486,19.02975 C167.622486,13.2464167 171.822297,8.50475 177.755997,8.50475 C180.452603,8.50475 183.22666,9.50641667 185.307827,11.24225 C184.883932,11.7814167 184.613272,12.2830833 184.228518,12.8230833 C182.532937,11.43475 180.221917,10.3939167 177.755997,10.3939167 C173.671113,10.3939167 169.664512,13.90225 169.664512,19.02975 C169.664512,24.31225 173.94094,27.5889167 178.064133,27.5889167 C181.49277,27.5889167 183.650555,25.8539167 184.768173,24.5055833 L186.116476,25.8164167 Z" id="Fill-19"></path>
                <path d="M205.843426,17.4493333 C205.728499,13.6318333 203.223437,10.3551667 198.9087,10.3551667 C195.132785,10.3551667 192.165519,13.1693333 191.471796,17.4493333 L205.843426,17.4493333 Z M207.192562,26.0851667 C205.728499,27.8201667 203.069369,29.4785 199.332595,29.4785 C193.205686,29.4785 189.35232,24.7368333 189.35232,19.0301667 C189.35232,13.2468333 193.013309,8.50516667 198.9087,8.50516667 C204.803259,8.50516667 208.11697,12.8226667 207.924593,19.3385 L191.356037,19.3385 C191.587555,24.3501667 195.324329,27.5518333 199.409213,27.5518333 C202.375647,27.5518333 204.418505,26.356 205.882567,24.8518333 L207.192562,26.0851667 Z" id="Fill-20"></path>
            </g>
        </g>
    </g>
</svg>