<?xml version="1.0" encoding="UTF-8"?>
<svg width="200px" height="30px" viewBox="0 0 200 30" version="1.1" xmlns="http://www.w3.org/2000/svg" xmlns:xlink="http://www.w3.org/1999/xlink">
    <!-- Generator: Sketch 60.1 (88133) - https://sketch.com -->
    <title>Page 1备份</title>
    <desc>Created with Sketch.</desc>
    <g id="Page-1" stroke="none" stroke-width="1" fill="none" fill-rule="evenodd">
        <g id="ES8-2020-Desktop" transform="translate(-1000.000000, -4945.000000)" fill="#FFFFFF">
            <g id="Page-1备份" transform="translate(1000.000000, 4945.000000)">
                <path d="M60.3351266,22.8549873 C56.0751266,22.8549873 52.6091772,19.3894177 52.6091772,15.129038 C52.6091772,10.8694177 56.0751266,7.4038481 60.3351266,7.4038481 C64.5947468,7.4038481 68.0603165,10.8694177 68.0603165,15.129038 C68.0603165,19.3894177 64.5947468,22.8549873 60.3351266,22.8549873 M60.3020886,0.379670886 C52.0703165,0.379670886 45.3731013,6.99524051 45.3731013,15.127519 C45.3731013,23.260557 52.0703165,29.8768861 60.3020886,29.8768861 C68.5338608,29.8768861 75.2318354,23.260557 75.2318354,15.127519 C75.2318354,6.99524051 68.5338608,0.379670886 60.3020886,0.379670886" id="Fill-1"></path>
                <path d="M41.1211899,1.10263291 L36.5000506,1.10263291 C36.0910633,1.10263291 35.8020759,1.10832911 35.4884051,1.20326582 C35.191443,1.29326582 34.9256203,1.45351899 34.7053671,1.67377215 C34.4854937,1.89364557 34.3252405,2.15908861 34.2352405,2.45605063 C34.1403038,2.77010127 34.1342278,3.05946835 34.1342278,3.4684557 L34.1342278,29.0630127 L41.1211899,29.0630127 L41.1211899,1.10263291 Z" id="Fill-4"></path>
                <path d="M5.65082278,28.9624557 C5.94778481,28.8728354 6.21322785,28.7118228 6.43424051,28.4915696 C6.65449367,28.2713165 6.81436709,28.0051139 6.90436709,27.7085316 C6.99892405,27.3948608 7.005,27.1054937 7.005,26.6968861 L7.005,11.8837215 C11.6177848,17.1432152 16.2298101,22.4023291 20.8418354,27.6622025 C21.2736076,28.1547342 21.6328481,28.5352405 22.1937342,28.7896709 C22.755,29.0437215 23.2782911,29.0630886 23.9333544,29.0630886 L29.0291772,29.0630886 L29.0291772,1.10270886 L24.3898101,1.10270886 C23.9812025,1.10270886 23.6922152,1.10802532 23.3781646,1.20296203 C23.0812025,1.29334177 22.8157595,1.45359494 22.5955063,1.6738481 C22.3752532,1.89372152 22.2146203,2.15916456 22.125,2.45612658 C22.0300633,2.77017722 22.0239873,3.0595443 22.0239873,3.46853165 L22.0239873,18.2813165 C17.411962,13.021443 12.799557,7.76232911 8.1871519,2.50283544 C7.75537975,2.01068354 7.39613924,1.62941772 6.83487342,1.37536709 C6.27398734,1.12131646 5.75107595,1.10270886 5.09601266,1.10270886 L0.000189873418,1.10270886 L0.000189873418,29.0630886 L4.63841772,29.0630886 C5.04816456,29.0630886 5.3371519,29.0566329 5.65082278,28.9624557" id="Fill-6"></path>
                <polygon id="Fill-8" points="84.3196329 14.8458228 102.299886 14.8458228 102.299886 29.2298734 104.400646 29.2298734 104.400646 0.946329114 102.299886 0.946329114 102.299886 12.8658228 84.3196329 12.8658228 84.3196329 0.946329114 82.2184937 0.946329114 82.2184937 29.2298734 84.3196329 29.2298734"></polygon>
                <path d="M112.159063,18.724519 C112.159063,13.2295823 116.522734,9.71426582 120.765266,9.71426582 C125.007797,9.71426582 129.331215,13.2295823 129.331215,18.724519 C129.331215,24.2198354 125.007797,27.7351519 120.765266,27.7351519 C116.522734,27.7351519 112.159063,24.2198354 112.159063,18.724519 M131.472228,18.724519 C131.472228,11.7747722 126.139063,7.73464557 120.765266,7.73464557 C115.351215,7.73464557 110.057924,11.7747722 110.057924,18.724519 C110.057924,25.6742658 115.351215,29.7147722 120.765266,29.7147722 C126.139063,29.7147722 131.472228,25.6742658 131.472228,18.724519" id="Fill-10"></path>
                <path d="M153.493633,22.7652532 C151.715658,25.755 148.766165,27.7752532 145.614646,27.7752532 C141.614392,27.7752532 138.381987,25.4314557 138.381987,20.058038 L138.381987,8.34056962 L136.321481,8.34056962 L136.321481,20.2596835 C136.321481,27.250443 141.089203,29.715 145.049203,29.715 C148.645025,29.715 151.47338,28.0175316 153.493633,25.5533544 L153.493633,29.2296835 L155.554139,29.2296835 L155.554139,8.34056962 L153.493633,8.34056962 L153.493633,22.7652532 Z" id="Fill-12"></path>
                <path d="M168.726494,17.4317468 C165.534342,16.7854177 162.988899,16.178962 162.988899,13.7144051 C162.988899,11.2901013 165.089658,9.67389873 167.998899,9.67389873 C170.342316,9.67389873 172.36257,10.4011139 174.099532,11.653519 L174.948646,9.79541772 C172.806873,8.30035443 170.302063,7.73453165 168.038772,7.73453165 C164.039278,7.73453165 160.928013,10.0779494 160.928013,13.7546582 C160.928013,17.7552911 164.604722,18.6841519 167.998899,19.3711139 C170.908139,19.9369367 173.777127,20.7044051 173.777127,23.2498481 C173.777127,26.2399747 170.908139,27.7752911 167.837506,27.7752911 C165.534342,27.7752911 163.716114,27.128962 161.655608,26.0785823 L160.88738,27.9370633 C163.150291,29.0683291 165.534342,29.715038 167.877759,29.715038 C172.120291,29.715038 175.877886,27.128962 175.877886,23.2095949 C175.877886,19.0882025 172.079658,18.1187089 168.726494,17.4317468" id="Fill-14"></path>
                <g id="Group-18" transform="translate(179.620253, 7.471861)">
                    <path d="M2.43968354,9.63649367 C3.16689873,5.15168354 6.27816456,2.20218987 10.2377848,2.20218987 C14.7632278,2.20218987 17.389557,5.63662025 17.5110759,9.63649367 L2.43968354,9.63649367 Z M10.2377848,0.262443038 C4.05588608,0.262443038 0.217405063,5.23218987 0.217405063,11.2929494 C0.217405063,17.2728228 4.25791139,22.2429494 10.6820886,22.2429494 C14.6014557,22.2429494 17.389557,20.5056076 18.9252532,18.687 L17.5509494,17.3943418 C16.0160127,18.9699114 13.8742405,20.2226962 10.7633544,20.2226962 C6.48056962,20.2226962 2.56082278,16.8691519 2.31892405,11.6164937 L19.6927215,11.6164937 C19.8947468,4.78788608 16.4196835,0.262443038 10.2377848,0.262443038 L10.2377848,0.262443038 Z" id="Fill-16"></path>
                </g>
            </g>
        </g>
    </g>
</svg>