<svg height="12" viewBox="0 0 37 12" width="37" xmlns="http://www.w3.org/2000/svg"><g fill="#000f16" fill-rule="evenodd"><path d="m33.9483267 10.6483691c-.620663.22979-1.1666208.3389834-2.5893644.3389834-1.0507917 0-2.062624-.0338785-2.8887754-.444-1.0927684-.54371272-1.5873705-1.98106079-1.5991108-4.65507184.9364056-.1758895 2.6798108-.37246409 4.6748132-.37246409 1.3174741 0 2.0781028.07133702 2.6277336.24669614.790209.23496132 1.1913477.63460773 1.1913477 2.16636464 0 1.93809945-.7570213 2.47153595-1.4166439 2.71949175m.7587266-5.69655253-.0008526-.00019889c-.7331471-.2118895-1.7754124-.31935912-3.0981992-.31935912-1.7889236 0-3.332481.19186741-4.7343675.40508288.0494537-1.95016575.5703568-2.98183426 1.7790198-3.54304973.7384598-.3318895 1.6746686-.49325967 2.862081-.49325967 2.0216312 0 3.2649905.42298343 3.7057445.60483978l.11091.04567956.3347632-.86678453-.1070403-.04455248c-.2750777-.11443095-1.7643279-.68532597-4.0910764-.68532597-1.3454804 0-2.4395605.18835359-3.3459266.5759337-1.1586846.50612155-2.3432767 1.51843094-2.3432767 5.19036464 0 3.77370166 1.1200531 5.10132596 2.0564587 5.54890606.9827109.5051271 2.4728794.5636022 3.5082578.5636022 1.4020177 0 2.3213047-.1149613 3.0752433-.3847956 1.3740114-.510895 1.9601749-1.60760216 1.9601749-3.66709388 0-1.70453038-.5001115-2.58086187-1.6719139-2.92998895"/><path d="m10.6331708 5.48169282h-9.54007767c.0250946-2.22198895.75796363-3.61511602 2.17903729-4.14172376.70284869-.25617679 1.69325362-.38605525 2.94379044-.38605525 1.28015778 0 2.12665147.13843094 2.92175778.47794475 1.00837716.4322652 1.63327956 1.02278453 1.63327956 2.62760221 0 .41025415-.0511877.93500553-.1377874 1.42223205m-1.05530479-4.85177901c-.9568567-.39222099-2.05030262-.57500552-3.44088999-.57500552-.7594946 0-2.18935469.0560884-3.23221201.43226519-1.98174176.74254144-2.90478398 2.47743646-2.90478398 5.45980111 0 3.02579005.89781449 4.77560221 2.82504037 5.50693921.84629399.3228729 1.98134237.4797348 3.4698453.4797348 2.68625455 0 4.1259661-.515337 5.0785627-.8565083l.1084327-.0387845-.2787033-.8755359-.1190163.0462099c-.9714342.3769061-2.28527333.7624973-4.6628043.7624973-1.97808074 0-2.8120604-.2722873-3.27022004-.4783426-1.38898983-.58057456-2.0213473-1.86570163-2.04231494-4.15935909h10.33272108l.0525855-.20260773c.134792-.51759116.2744432-1.05288398.2744432-1.96163536 0-1.88360221-.6347538-2.90897238-2.19068599-3.53966851"/><path d="m20.4017016 10.8119624c-3.7471835 0-5.8109261-1.76433669-5.8109261-4.96803697 0-2.07293611.7542242-3.54143025 2.1823114-4.24740164.8353745-.42617368 1.9933115-.64238399 3.4413903-.64238399 1.5033847 0 2.6765785.27999499 3.4371158.52270553l.2778444-.90376963c-.8469486-.26585715-2.1358177-.5730757-3.7149602-.5730757-1.6513491 0-3.0293915.25244264-3.9849131.73010435-1.793132.89653632-2.7022914 2.62247067-2.7022914 5.1295371 0 3.76362449 2.5055973 5.92217675 6.8744289 5.92217675 1.5586247 0 2.7738404-.2795347 3.5982984-.5442082l-.2627191-.926982c-.7830937.2454066-1.9353094.5013344-3.3355793.5013344"/></g></svg>