<svg height="11" viewBox="0 0 35 11" width="35" xmlns="http://www.w3.org/2000/svg"><g fill-rule="evenodd" transform="translate(.714286)"><path d="m.93072628 4.94307178c.06876607-2.00786391.74676447-3.21896714 2.06687238-3.69758836.65459534-.23519727 1.58996458-.35442282 2.77988125-.35442282 1.176176 0 2.08331099.14507208 2.77793622.44565308 1.14681238.47714778 1.53380977 1.09556127 1.53380977 2.45063151 0 .40451966-.0282342.78521876-.0858948 1.15572659zm7.98539804-4.41533602c-.85072924-.35012529-1.92105818-.52773576-3.1813095-.52773576-1.28672876 0-2.28157815.13475803-3.04170683.41188684-1.78697688.65371456-2.69310799 2.36560196-2.69310799 5.08814386 0 2.80505433.8116405 4.36511639 2.63074168 5.058184.76401873.2931524 1.84664525.4417853 3.21782579.4417853.79614303 0 1.48468221-.0469044 2.10407885-.1433531.72336141-.1102621 1.14769078-.1928973 1.41346916-.2751642.37865263-.1111217.73089052-.2275231 1.07704242-.3560804l.334168-.1240143-.3281447-.83457883-.3335406.12837314c-1.23088766.47352559-2.65690538.71369569-4.23858791.71369569-1.28365437 0-2.28540546-.14537904-2.98147377-.43349722-1.29413241-.51914072-1.90744301-1.71010699-1.96598201-3.8413098h9.83009829l.0503197-.28983719c.1259875-.72677245.1899851-1.32259325.1899851-1.77088624 0-1.71569377-.6039619-2.65617588-2.08387568-3.24561179z"/><path d="m20.3863486 5.44821485-5.6276914-.90475127c-.3591087-.06022671-.8364965-.3024228-.8364965-1.70304678 0-.86202162.3420798-1.39030992 1.0765758-1.66246588.520393-.19308155 1.3245056-.28689032 2.4584025-.28689032 1.0521002 0 2.2914612.20652665 3.6837362.61399317l.3062902.08975683.2442932-.84544546-.32355-.09614172c-1.4594672-.43349723-2.770927-.65322342-3.8977814-.65322342-1.2545427 0-2.1646965.11615589-2.7794704.35387028-1.050888.39346888-1.6063779 1.24364162-1.6063779 2.45867402 0 1.95076825.8561807 2.49821123 1.5745136 2.61393737l5.6362348.90389177c.5492557.10031645.8671486.37486675.8671486 1.48098765 0 .90499684-.1969586 1.30478922-.3623991 1.48055789l-.0101019.01141913c-.2247244.26165773-.3812175.34797654-.7060952.4590368-.6991681.22997885-1.5697224.34650309-2.5871875.34650309-.5190077 0-1.0455773-.0356694-1.6100147-.1087887-.5123693-.06648881-.8998788-.1340827-1.146481-.19958922l-1.3996062-.39801198-.3402903.8432967 1.5271212.4244724c.28447.0720756.6899898.1426164 1.2406309.2157971.5911065.07668 1.1437102.1139457 1.6893869.1139457 1.1296252 0 2.0953685-.1268997 2.8699835-.3768313.7631277-.2445291 1.6728775-.92126607 1.6728775-2.75606261 0-1.49148588-.4975916-2.23753579-1.6136514-2.41889124"/><path d="m29.2619766 10.0435049c-.9774868 0-1.9180372-.0308626-2.6822305-.40335682-.9999939-.48884126-1.455439-1.78696802-1.4706699-4.20116904.8819086-.15964038 2.4900876-.33501823 4.3274692-.33501823 1.2269764 0 1.9344395.06497063 2.4449501.22497843.7180692.20973084 1.0826226.56863083 1.0826226 1.94856793 0 .97841734-.1540349 2.03552203-1.295916 2.45737189-.575442.20911849-1.082191.30862584-2.4062255.30862584m3.1418687-5.54332398c-.6897041-.19570796-1.668424-.29490912-2.9090898-.29490912-1.6538098 0-3.0832269.17188744-4.3820411.36477858.053832-1.73883709.5349908-2.66189774 1.6361125-3.16433323.684956-.30225736 1.5545936-.44922203 2.6586134-.44922203 1.8830124 0 3.0391994.38621092 3.4488287.55221977l.1449704.05878588.3447596-.87737913-.1399141-.05719376c-.2584925-.1056921-1.6586812-.63292788-3.8423022-.63292788-1.2637278 0-2.2925184.17415314-3.1461236.53280819-1.0966202.47059315-2.2176591 1.40975868-2.2176591 4.80825563 0 3.48955382 1.0609172 4.72038298 1.9469572 5.13647678.9272928.4682662 2.3277282.5224594 3.3004668.5224594 1.3163266 0 2.1803529-.1063657 2.8908991-.3562669 1.3049189-.4765942 1.8616769-1.49634534 1.8616769-3.40958051 0-1.12085062-.1894913-2.32210316-1.5961547-2.73397167"/></g></svg>