<svg height="11" viewBox="0 0 34 11" width="34" xmlns="http://www.w3.org/2000/svg"><g fill-rule="evenodd"><path d="m.93073159 4.94303797c.06876647-2.00787511.74676872-3.21892371 2.06688417-3.697609.65466182-.23519858 1.58997365-.35442479 2.7798971-.35442479 1.17611997 0 2.08326014.14507289 2.77795207.44565557 1.14681892.47715044 1.53381857 1.09556738 1.53381857 2.45064519 0 .40452191-.0282344.78522313-.0858954 1.15573303zm7.98544359-4.41536065c-.85067135-.35012726-1.92113189-.52767732-3.18132765-.52767732-1.2867361 0-2.28159116.13469739-3.04172418.41182774-1.78698707.65377961-2.69312335 2.36561516-2.69312335 5.08817226 0 2.80506999.81164513 4.36520215 2.63075668 5.0582122.76402309.2931541 1.84665579.4417878 3.21790689.4417878.79608483 0 1.48462793-.0469047 2.10396537-.1432925.72342828-.1102627 1.14782281-.1929598 1.41347722-.2752271.37871753-.1110609.73095744-.227463 1.07711134-.3560825l.3341699-.1240149-.3282093-.8345835-.3334798.12837385c-1.23089469.47352823-2.65692054.71369965-4.23854935.71369965-1.28372443 0-2.28548124-.14537982-2.98155352-.43349962-1.29413979-.51914361-1.90745388-1.71011653-1.96599322-3.84133123h9.83015439l.0503199-.28990021c.126051-.72671511.1899235-1.32253923.1899235-1.77083473 0-1.71570334-.6039026-2.6561907-2.08382482-3.24562989z"/><path d="m20.207054 5.44818387-6.2529905-.90475633c-.3990097-.06022704-.9294405-.30242448-.9294405-1.70299488 0-.86208783.3801528-1.39031769 1.1962594-1.66253656.5781504-.19308262 1.4716088-.28689192 2.7314943-.28689192 1.1690644 0 2.5461321.2065278 4.0930402.61405799l.3403865.08969594.2714369-.84545018-.3594999-.09614226c-1.6216945-.43343826-3.0788078-.65316567-4.3308683-.65316567-1.3939363 0-2.4052183.11609515-3.0883645.35381086-1.1676533.39347108-1.7848644 1.24370996-1.7848644 2.45868774 0 1.95077914.9513119 2.49822517 1.7495237 2.61395196l6.2624831.90389682c.61022.10031701.9634984.37486884.9634984 1.48099591 0 .9050019-.2189069 1.30479651-.4027297 1.48056616l-.0111603.01148059c-.2497578.26159779-.4236391.34791708-.7845501.45903936-.7769176.22991873-1.7441361.3464436-2.874717.3464436-.576611 0-1.1616884-.0356696-1.7888411-.1087893-.5693633-.06648917-.9999294-.13408343-1.2739319-.19959032l-1.5550538-.3980142-.3781645.84330142 1.6968655.4244748c.3160136.072076.7665912.1426171 1.3784146.2157982.6568491.0766805 1.2707891.1139464 1.8770966.1139464 1.2551391 0 2.3281872-.126839 3.1889347-.376772.8478555-.2445918 1.8586886-.92133261 1.8586886-2.75613939 0-1.49143282-.5528154-2.23754828-1.792946-2.41890474"/><path d="m25.7143179 5.89116664c.1798744-.09325624.4777443-.14059038.8850921-.14059038h4.8153344c.3594982 0 .6584329.04745693.8637352.136784.5276607.23114532.784132.8604254.784132 1.92400083 0 .85778549-.2461999 1.43745988-.7479317 1.76904444-.2919827.18669666-.6580571.320411-1.1190791.408633-.4900824.07956557-1.2477218.11977807-2.2523752.11977807-1.8321256 0-2.6901614-.14059036-3.2816424-.53909348-.4470555-.29560816-.7241948-.68827893-.7241948-1.73055092 0-1.04540305.2580371-1.69917901.7769295-1.94800556m6.5434937-1.16567229c-.132338.06108622-.4204376.13395992-1.0418559.13395992h-4.5455229c-.5294769 0-.816136-.08595045-.9595595-.15624564-.3294357-.16631412-.5035481-.72376418-.5035481-1.61206208 0-1.25978803.3319409-1.6506784.8388083-1.85352146.5344248-.22991746 1.5281179-.34662589 2.9537726-.34662589 1.4255293 0 2.4194104.11670843 2.961476.34975694.498976.20149241.8312927.58599789.8312927 1.80852026 0 .64855754-.0935072 1.4661305-.5348632 1.67621795m.762775.55094239c.4575773-.40722095.6811677-1.15462151.6811677-2.2689077 0-1.13110793-.2095612-2.23943898-1.7264682-2.68539903-.7074725-.21677931-1.6808107-.32213001-2.97538-.32213001-1.2943815 0-2.2677197.1053507-2.9762569.32237558-1.225488.37934845-1.7254035 1.16542671-1.7254035 2.71302596 0 1.12294263.2250935 1.86426526.6860529 2.25098089-.6217315.44546891-.9842986 1.35071133-.9842986 2.49710615 0 1.49645873.6155937 2.46444502 1.8336287 2.87848062.6866166.2242078 1.7518962.3380308 3.1662774.3380308 1.4144438 0 2.4797234-.113823 3.1705361-.3394429 1.2139641-.4126235 1.8295578-1.38060979 1.8295578-2.87706852 0-1.12085526-.3888092-2.08282498-.9794134-2.50705184"/></g></svg>